<svg width="200" height="60" viewBox="0 0 200 60" fill="none" xmlns="http://www.w3.org/2000/svg">
  <!-- M letter -->
  <path d="M5 50V10L20 35L35 10V50H30V22L20 40L10 22V50H5Z" fill="currentColor"/>
  
  <!-- Code brackets < > -->
  <path d="M42 25L52 35L42 45" stroke="currentColor" stroke-width="3" stroke-linecap="round" stroke-linejoin="round" fill="none"/>
  <path d="M62 25L52 35L62 45" stroke="currentColor" stroke-width="3" stroke-linecap="round" stroke-linejoin="round" fill="none"/>
  
  <!-- Curly brace } -->
  <path d="M68 15C68 15 75 15 75 22V28C75 32 80 35 80 35C80 35 75 38 75 42V48C75 55 68 55 68 55" stroke="currentColor" stroke-width="2.5" stroke-linecap="round" fill="none"/>
  
  <!-- Text: murtuza.dev -->
  <text x="90" y="40" font-family="system-ui, -apple-system, sans-serif" font-size="18" font-weight="500" fill="currentColor">murtuza.dev</text>
</svg>
